#!OML:ASF E:\emotionWalksFemale\Project 1\Capture day 1\Session 1\Female1.ASF
:FULLY-SPECIFIED
:DEGREES
1027
root -3.98781 15.4611 11.1901 3.06153 261.741 355.71
lowerback 8.04121 -1.57011 -0.493964
upperback -2.82105 -2.14888 0.163644
thorax -7.45748 -1.02619 0.758017
lowerneck -3.10888 -11.0195 -14.1642
upperneck 17.9862 -16.9689 12.5617
head 8.36407 -8.40822 4.79235
rclavicle -7.10034e-015 1.78906e-015
rhumerus -47.3897 11.6151 -85.1833
rradius 43.4337
rwrist 9.62248
rhand -3.64427 -50.5455
rfingers 7.12502
rthumb 22.0955 -439.303
lclavicle -7.10034e-015 1.78906e-015
lhumerus -33.3013 8.60451 80.3342
lradius 36.0703
lwrist -22.616
lhand -4.5859 -26.5811
lfingers 7.12502
lthumb 21.1912 2.2806
rfemur -7.9643 17.0053 32.497
rtibia 16.7038
rfoot -13.8286 -31.5717
rtoes 34.0891
lfemur -16.4246 2.54147 -17.2156
ltibia 66.9813
lfoot -6.04055 -3.96232
ltoes -20.4368
1028
root -4.0829 15.4646 11.1754 2.88723 260.656 355.949
lowerback 7.93636 -1.46208 -0.526114
upperback -2.76202 -2.00795 0.145212
thorax -7.33529 -0.957226 0.732201
lowerneck -3.07599 -11.2291 -14.1424
upperneck 17.9083 -17.2468 12.4732
head 8.36356 -8.54544 4.721
rclavicle -1.35111e-014 -5.86415e-015
rhumerus -46.9808 11.9945 -85.4374
rradius 43.8466
rwrist 9.38841
rhand -3.51778 -50.2972
rfingers 7.12502
rthumb 22.217 -439.04
lclavicle -1.35111e-014 -5.86415e-015
lhumerus -33.9085 8.4431 80.1848
lradius 36.3272
lwrist -22.5665
lhand -4.45958 -26.7995
lfingers 7.12502
lthumb 21.3126 2.04856
rfemur -7.68749 15.0195 32.6216
rtibia 16.597
rfoot -11.8966 -29.0822
rtoes 29.6233
lfemur -17.261 2.02965 -17.2161
ltibia 66.8996
lfoot -7.21932 -3.87613
ltoes -18.9711
1029
root -4.17334 15.462 11.1655 2.6843 259.522 356.207
lowerback 7.96081 -1.42878 -0.492973
upperback -2.76392 -1.95816 0.171166
thorax -7.3523 -0.933571 0.734619
lowerneck -2.83137 -11.2652 -14.376
upperneck 17.6728 -17.2911 12.5385
head 8.27553 -8.58867 4.78698
rclavicle -8.80243e-015 -7.45443e-015
rhumerus -46.6058 12.386 -85.6659
rradius 44.2513
rwrist 9.40763
rhand -3.74758 -50.3293
rfingers 7.12502
rthumb 21.9963 -439.099
lclavicle -8.80243e-015 -7.45443e-015
lhumerus -34.674 8.43826 80.0066
lradius 36.5718
lwrist -22.4489
lhand -4.33371 -27.0856
lfingers 7.12502
lthumb 21.4335 1.74879
rfemur -7.28037 18.3038 32.9212
rtibia 16.7307
rfoot -8.31408 -31.521
rtoes 20.0402
lfemur -18.0795 1.42316 -17.2103
ltibia 66.5657
lfoot -8.24589 -3.70246
ltoes -18.09
1030
root -4.26808 15.4601 11.1552 2.24819 258.365 356.639
lowerback 8.00284 -1.39747 -0.335148
upperback -2.74533 -1.89807 0.183812
thorax -7.36221 -0.910996 0.651742
lowerneck -2.56518 -11.3081 -14.6436
upperneck 17.4506 -17.3662 12.6687
head 8.20239 -8.64599 4.87642
rclavicle -1.26104e-015 1.78906e-015
rhumerus -46.217 12.8417 -85.9858
rradius 44.5759
rwrist 9.26687
rhand -4.0207 -50.2746
rfingers 7.12502
rthumb 21.7341 -439.074
lclavicle -1.26104e-015 1.78906e-015
lhumerus -35.5138 7.89337 80.1355
lradius 36.9554
lwrist -21.161
lhand -5.07531 -26.7354
lfingers 7.12502
lthumb 20.7211 2.17831
rfemur -6.90966 19.3069 33.2365
rtibia 16.9583
rfoot -9.57702 -31.8703
rtoes 22.8205
lfemur -18.7509 0.820108 -17.1636
ltibia 65.9927
lfoot -9.31827 -3.51492
ltoes -18.3276
1031
root -4.36802 15.4599 11.1391 1.82253 257.078 357.057
lowerback 7.97095 -1.25683 -0.22197
upperback -2.71865 -1.69726 0.184402
thorax -7.32077 -0.818154 0.559076
lowerneck -2.37884 -11.4808 -14.901
upperneck 17.3985 -17.6411 12.7598
head 8.22678 -8.79622 4.9159
rclavicle -5.88278e-015 -5.76476e-015
rhumerus -45.8859 13.1058 -86.3
rradius 44.8817
rwrist 8.95678
rhand -4.24584 -50.1641
rfingers 7.12502
rthumb 21.5179 -438.989
lclavicle -5.88278e-015 -5.76476e-015
lhumerus -36.4404 6.65323 80.8473
lradius 37.5903
lwrist -17.8716
lhand -7.04056 -25.4098
lfingers 7.12502
lthumb 18.8318 3.69864
rfemur -6.80696 14.3505 33.3011
rtibia 17.1948
rfoot -9.31224 -26.2516
rtoes 19.6891
lfemur -19.1872 0.259871 -17.0805
ltibia 65.1344
lfoot -10.3643 -3.43308
ltoes -17.8327
